<?xml version="1.0" encoding="UTF-8" standalone="no"?>
<!DOCTYPE svg PUBLIC "-//W3C//DTD SVG 1.1//EN" "http://www.w3.org/Graphics/SVG/1.1/DTD/svg11.dtd">
<!-- Created with Vectornator (http://vectornator.io/) -->
<svg height="100%" stroke-miterlimit="10" style="fill-rule:nonzero;clip-rule:evenodd;stroke-linecap:round;stroke-linejoin:round;" version="1.1" viewBox="0 0 512 512" width="100%" xml:space="preserve" xmlns="http://www.w3.org/2000/svg" xmlns:xlink="http://www.w3.org/1999/xlink">
<defs>
<path d="M9.20774 82.2001C9.20774 41.8875 41.8875 9.20774 82.2001 9.20774L429.205 9.20774C469.517 9.20774 502.197 41.8875 502.197 82.2001L502.197 429.205C502.197 469.517 469.517 502.197 429.205 502.197L82.2001 502.197C41.8875 502.197 9.20774 469.517 9.20774 429.205L9.20774 82.2001Z" id="Fill"/>
<linearGradient gradientTransform="matrix(-195.261 -428.354 428.354 -195.261 62.3477 290.339)" gradientUnits="userSpaceOnUse" id="LinearGradient" x1="0" x2="1" y1="0" y2="0">
<stop offset="0" stop-color="#3adbdb"/>
<stop offset="1" stop-color="#000000"/>
</linearGradient>
</defs>
<g id="Layer-1">
<g opacity="1">
<use fill="url(#LinearGradient)" fill-rule="nonzero" opacity="1" stroke="#206161" stroke-linecap="butt" stroke-linejoin="round" stroke-width="15" xlink:href="#Fill"/>
<clipPath clip-rule="nonzero" id="ClipPath">
<use xlink:href="#Fill"/>
</clipPath>
<g clip-path="url(#ClipPath)">
<path d="M460.66 58.4852C460.66 58.4853 442.498 83.3561 431.706 114.016C424.436 134.673 423.43 150.516 423.441 159.122C419.101 161.557 414.664 163.974 410.477 166.414C405.617 160.906 400.646 155.53 397.134 152.694C387.82 145.169 370.474 143.223 361.86 140.215C353.245 137.207 345.747 138.851 340.793 128.98C335.837 119.108 341.981 77.1218 341.981 77.1216C341.981 77.1216 343.025 76.0524 341.711 76.3654C340.398 76.6782 336.708 78.3698 327.396 83.8199C308.765 94.7204 302.719 101.921 288.017 116.663C273.315 131.406 136.679 217.088 120.937 225.403C105.196 233.719 65.7276 243.251 59.248 249.711C52.7699 256.171 50.1711 260.521 54.3323 264.566C55.701 265.898 57.3108 265.828 59.194 265.377C58.5281 269.309 58.0994 273.889 58.8158 278.881C59.67 284.861 62.2744 292.482 63.8396 294.547C65.405 296.611 63.2464 287.647 65.8923 279.259C67.7012 273.521 70.5142 267.266 72.8607 262.46C74.5765 262.323 76.081 262.035 78.1545 262.189C80.8841 262.391 83.2817 263.007 85.5551 263.81C84.2171 266.717 82.8936 270.128 82.3139 273.425C80.3105 284.859 81.2311 290.925 82.368 296.491C83.5066 302.056 85.9291 302.378 85.9332 302.379C85.9332 302.379 85.4896 289.519 88.6341 282.879C90.8939 278.106 93.6025 274.347 97.007 270.832C99.501 272.944 103.565 276.943 106.568 279.853L104.462 298.868L117.318 289.955C118.021 290.61 118.2 290.843 118.939 291.522C120.906 293.325 122.729 295.417 124.556 297.518L115.805 314.587L131.471 306.377C144.681 325.41 144.748 341.452 159.993 358.289C169.428 368.708 209.867 395.989 231.243 402.152C252.62 408.317 269.514 407.218 281.967 407.986C294.418 408.753 331.385 412.328 345.006 411.119C358.63 409.909 367.785 405.61 375.257 399.883C382.728 394.157 397.409 376.268 405.129 364.501C412.847 352.735 435.62 293.445 438.675 266.133C441.469 241.166 429.219 196.021 427.007 188.13C430.913 185.711 434.147 183.308 437.594 180.891C444.233 185.596 454.428 193.333 465.09 202.445C479.894 215.097 494.161 234.481 505.982 247.496C517.803 260.511 534.018 296.545 534.018 296.545C534.017 296.545 521.766 263.246 512.464 246.848C503.162 230.45 490.9 213.542 476.218 197.367C466.418 186.569 457.054 178.356 450.559 172.897C454.217 170.95 458.513 168.885 463.901 166.63C466.673 165.47 469.74 164.489 472.706 163.443C476.686 166.601 481.178 170.084 484.969 172.14C493.186 176.595 507.258 189.864 516.029 200.986C524.802 212.108 530.54 220.259 542.066 242.743C553.592 265.226 555.841 279.583 555.841 279.583C555.841 279.584 553.461 262.751 551.195 254.897C548.931 247.042 542.563 231.647 536.448 216.328C530.333 201.008 519.956 188.973 509.007 176.57C502.805 169.544 495.589 163.213 489.83 158.366C496.311 156.786 503.202 155.362 510.898 154.206C519.988 160.512 541.164 175.584 552.924 189.858C560.476 199.024 565.171 204.969 568.968 210.386L568.968 197.421C559.419 180.377 557.748 180.38 546.604 167.495C540.663 160.626 535.602 155.522 531.641 151.775C532.481 151.7 533.165 151.577 534.018 151.505C542.154 150.825 548.379 150.742 555.409 150.425C558.828 153.991 564.573 160.657 568.968 165.496L568.968 126.603C567.324 126.615 565.623 126.582 563.998 126.603C564.163 119.868 564.698 111.795 565.943 98.7831C566.322 94.8264 567.501 90.3058 568.968 85.6566L568.968 73.9345C564.84 80.6293 560.843 87.4604 558.596 92.8411C553.755 104.436 550.038 119.522 548.224 127.197C543.256 127.411 537.623 127.508 533.747 127.899C531.037 128.173 528.654 128.568 526.023 128.871C526.083 122.089 525.74 113.95 525.915 107.156C526.23 94.9659 535.8 65.6696 535.8 65.6697C535.8 65.6698 526.487 81.7972 519.054 100.728C514.172 113.16 512.554 123.487 511.762 130.6C499.111 132.398 488.032 134.57 478.27 136.866C478.373 131.474 478.645 124.999 479.567 116.231C480.877 103.768 487.508 82.0372 487.508 82.0373C487.508 82.0375 474.767 105.627 471.032 115.691C468.466 122.606 466.786 132.93 465.738 140.107C462.113 141.193 458.435 142.283 455.583 143.402C450.323 145.467 445.738 147.899 440.944 150.209C441.066 141.01 439.775 126.729 440.889 112.936C442.536 92.5098 460.66 58.4853 460.66 58.4852ZM214.876 211.412C221.402 212.491 229.854 218.144 234.538 225.889C239.224 233.634 241.73 246.093 235.943 252.088C230.156 258.083 223.648 261.851 215.74 262.568C207.833 263.284 200.49 266.165 197.049 264.35C193.609 262.536 193.729 261.719 194.024 256.788C194.319 251.855 197.831 252.116 197.698 247.118C197.566 242.12 196.078 238.69 192.296 238.043C192.296 238.043 183.559 240.106 184.679 234.316C185.8 228.525 190.98 226.822 198.076 221.297C205.172 215.772 208.349 210.333 214.876 211.412ZM204.828 224.809C202.986 225.856 201.046 230.697 201.047 230.697C201.047 230.697 199.162 243.833 201.641 246.686C204.12 249.539 203.411 251.52 208.447 251.44C213.483 251.36 217.694 247.422 218.117 242.743C218.539 238.063 216.227 228.134 213.039 226.699C209.852 225.265 206.671 223.761 204.828 224.809ZM136.765 325.013C136.765 325.013 121.497 334.873 116.616 339.706C110.273 345.987 103.013 354.307 96.2507 361.206C94.8086 359.759 93.0404 357.749 91.3891 355.317C88.4852 351.043 85.6085 347.431 85.6091 347.431C85.6091 347.431 84.2087 353.65 85.8251 358.397C87.0261 361.922 88.3355 365.287 89.2823 367.742C87.8753 368.938 86.3889 370.314 85.1229 371.145C82.869 372.625 81.9641 373.162 80.2612 374.332C78.4833 372.282 75.4526 368.723 72.4825 365.473C68.6929 361.327 68.4312 356.182 68.4312 356.182C68.4315 356.182 65.4365 363.788 65.8383 369.74C66.1102 373.762 68.3652 378.043 70.1057 381.03C68.3523 382.174 66.3993 383.683 64.1637 384.974C62.9923 385.65 61.5694 386.328 60.2743 387.026C57.7677 384.628 53.0776 380.103 51.5233 377.465C49.5027 374.035 47.9581 367.85 47.9581 367.85C47.9581 367.85 46.0311 379.132 46.5536 385.082C46.8626 388.6 48.3052 391.043 49.6327 392.752C45.0439 395.119 41.2375 397.083 40.3415 398.1C38.5369 400.147 38.4714 400.017 40.7196 401.99C42.968 403.962 67.8163 394.94 77.7224 390.754C89.5686 385.748 94.8821 383.611 106.028 376.223C117.174 368.834 145.84 350.078 145.84 350.078C145.84 350.078 140.676 344.404 137.845 335.817C135.014 327.23 136.765 325.013 136.765 325.013ZM146.596 355.047C146.596 355.047 129.726 365.811 112.78 376.871C95.9147 387.879 80.9409 393.43 69.2414 397.938C57.1497 402.598 43.9067 406.041 43.9067 406.041C43.9069 406.041 37.957 409.198 41.4759 417.871C44.9945 426.544 50.129 428.653 59.1399 430.619C68.1515 432.586 72.18 430.209 87.8238 427.54C103.468 424.871 134.711 422.04 147.784 419.384C160.859 416.727 186.809 408.142 195.915 404.312C205.021 400.483 204.72 397.776 204.72 397.776L173.875 378.978L146.596 355.047Z" fill="#185555" fill-rule="nonzero" opacity="1" stroke="none"/>
</g>
</g>
</g>
</svg>
