<?xml version="1.0" encoding="UTF-8" standalone="no"?>
<!DOCTYPE svg PUBLIC "-//W3C//DTD SVG 1.1//EN" "http://www.w3.org/Graphics/SVG/1.1/DTD/svg11.dtd">
<!-- Created with Vectornator (http://vectornator.io/) -->
<svg height="100%" stroke-miterlimit="10" style="fill-rule:nonzero;clip-rule:evenodd;stroke-linecap:round;stroke-linejoin:round;" version="1.1" viewBox="0 0 512 512" width="100%" xml:space="preserve" xmlns="http://www.w3.org/2000/svg" xmlns:xlink="http://www.w3.org/1999/xlink">
<defs>
<linearGradient gradientTransform="matrix(-187.256 -410.793 410.793 -187.256 70.5718 289.217)" gradientUnits="userSpaceOnUse" id="LinearGradient" x1="0" x2="1" y1="0" y2="0">
<stop offset="0" stop-color="#3adbdb"/>
<stop offset="1" stop-color="#000000"/>
</linearGradient>
</defs>
<g id="Layer-1">
<path d="M19.6103 39.6103C19.6103 28.5646 28.5646 19.6103 39.6103 19.6103L472.39 19.6103C483.435 19.6103 492.39 28.5646 492.39 39.6103L492.39 472.39C492.39 483.435 483.435 492.39 472.39 492.39L39.6103 492.39C28.5646 492.39 19.6103 483.435 19.6103 472.39L19.6103 39.6103Z" fill="url(#LinearGradient)" fill-rule="nonzero" opacity="1" stroke="#206161" stroke-linecap="butt" stroke-linejoin="round" stroke-width="15"/>
<path d="M410.881 165.201C410.881 165.201 397.213 183.917 389.092 206.989C383.621 222.535 382.864 234.457 382.872 240.933C379.606 242.765 376.267 244.584 373.116 246.42C369.459 242.275 365.718 238.229 363.076 236.095C356.066 230.432 343.013 228.968 336.531 226.705C330.047 224.441 324.405 225.678 320.677 218.25C316.948 210.821 321.571 179.225 321.571 179.225C321.571 179.225 322.357 178.42 321.368 178.656C320.38 178.891 317.603 180.164 310.596 184.266C296.575 192.469 292.025 197.887 280.962 208.981C269.898 220.076 167.075 284.554 155.23 290.811C143.384 297.069 113.683 304.242 108.807 309.104C103.932 313.965 101.976 317.238 105.107 320.282C106.137 321.285 107.349 321.232 108.766 320.892C108.265 323.851 107.942 327.298 108.481 331.055C109.124 335.555 111.084 341.29 112.262 342.844C113.44 344.397 111.816 337.652 113.807 331.339C115.168 327.021 117.285 322.314 119.051 318.697C120.342 318.594 121.474 318.378 123.034 318.494C125.088 318.646 126.893 319.109 128.603 319.713C127.597 321.901 126.601 324.468 126.164 326.949C124.657 335.553 125.35 340.118 126.205 344.307C127.062 348.495 128.885 348.737 128.888 348.738C128.888 348.738 128.554 339.06 130.92 334.063C132.621 330.471 134.659 327.643 137.221 324.998C139.098 326.587 142.157 329.596 144.416 331.787L142.831 346.096L152.506 339.388C153.035 339.881 153.17 340.057 153.725 340.567C155.206 341.924 156.578 343.499 157.953 345.079L151.368 357.925L163.156 351.746C173.098 366.069 173.148 378.141 184.62 390.811C191.72 398.652 222.152 419.181 238.238 423.819C254.325 428.459 267.038 427.632 276.409 428.21C285.778 428.787 313.597 431.477 323.848 430.567C334.1 429.657 340.99 426.422 346.612 422.112C352.235 417.803 363.283 404.341 369.092 395.486C374.9 386.632 392.037 342.015 394.336 321.461C396.439 302.673 387.22 268.7 385.555 262.762C388.495 260.941 390.928 259.133 393.523 257.315C398.518 260.855 406.191 266.677 414.214 273.534C425.355 283.056 436.091 297.643 444.987 307.437C453.882 317.231 466.084 344.347 466.084 344.348C466.084 344.348 456.865 319.289 449.865 306.949C442.864 294.609 433.637 281.886 422.588 269.713C415.213 261.588 408.167 255.407 403.279 251.298C406.032 249.834 409.265 248.28 413.32 246.583C415.405 245.71 417.714 244.971 419.946 244.185C422.941 246.561 426.321 249.182 429.173 250.729C435.357 254.082 445.947 264.067 452.548 272.437C459.149 280.806 463.467 286.94 472.141 303.86C480.814 320.779 482.507 331.583 482.507 331.583C482.507 331.583 480.716 318.916 479.011 313.006C477.307 307.095 472.515 295.51 467.913 283.982C463.312 272.453 455.502 263.396 447.263 254.063C442.595 248.776 437.166 244.012 432.832 240.364C437.709 239.175 442.894 238.103 448.686 237.233C455.526 241.979 471.462 253.321 480.312 264.063C485.995 270.96 489.528 275.434 492.385 279.51L492.385 269.754C485.2 256.927 483.942 256.93 475.556 247.233C471.085 242.064 467.277 238.224 464.296 235.404C464.927 235.347 465.442 235.255 466.084 235.201C472.207 234.689 476.892 234.626 482.182 234.388C484.754 237.072 489.078 242.088 492.385 245.729L492.385 216.461C491.149 216.471 489.868 216.446 488.645 216.461C488.769 211.393 489.172 205.318 490.109 195.526C490.394 192.548 491.281 189.147 492.385 185.648L492.385 176.827C489.279 181.865 486.271 187.005 484.58 191.054C480.937 199.78 478.14 211.133 476.775 216.908C473.036 217.07 468.797 217.142 465.881 217.437C463.841 217.643 462.048 217.94 460.068 218.168C460.113 213.064 459.855 206.939 459.987 201.827C460.224 192.653 467.426 170.607 467.426 170.607C467.426 170.607 460.417 182.744 454.824 196.989C451.15 206.345 449.932 214.116 449.336 219.469C439.816 220.822 431.478 222.456 424.133 224.185C424.21 220.127 424.415 215.254 425.108 208.656C426.094 199.277 431.084 182.924 431.084 182.924C431.084 182.924 421.496 200.676 418.686 208.25C416.754 213.453 415.491 221.222 414.702 226.624C411.974 227.44 409.206 228.26 407.06 229.103C403.102 230.657 399.651 232.487 396.043 234.225C396.135 227.303 395.164 216.556 396.003 206.176C397.242 190.805 410.881 165.201 410.881 165.201ZM225.921 280.282C230.832 281.094 237.192 285.348 240.718 291.177C244.244 297.005 246.129 306.381 241.774 310.892C237.42 315.403 232.522 318.239 226.571 318.778C220.621 319.318 215.096 321.485 212.506 320.12C209.917 318.754 210.007 318.14 210.23 314.429C210.451 310.717 213.094 310.913 212.994 307.152C212.895 303.391 211.775 300.81 208.929 300.323C208.929 300.323 202.354 301.876 203.197 297.518C204.04 293.16 207.939 291.879 213.278 287.721C218.619 283.564 221.009 279.471 225.921 280.282ZM218.36 290.364C216.974 291.152 215.514 294.795 215.514 294.795C215.514 294.795 214.096 304.68 215.961 306.827C217.827 308.974 217.294 310.465 221.083 310.404C224.873 310.344 228.041 307.381 228.36 303.86C228.678 300.338 226.938 292.866 224.539 291.786C222.14 290.707 219.746 289.575 218.36 290.364ZM167.14 365.77C167.14 365.77 155.651 373.19 151.977 376.827C147.204 381.554 141.741 387.815 136.652 393.006C135.567 391.918 134.236 390.405 132.994 388.575C130.808 385.359 128.644 382.641 128.644 382.64C128.644 382.64 127.59 387.32 128.807 390.892C129.71 393.546 130.696 396.077 131.408 397.925C130.349 398.825 129.231 399.86 128.278 400.486C126.582 401.6 125.901 402.004 124.62 402.884C123.282 401.342 121.001 398.664 118.766 396.218C115.914 393.097 115.717 389.226 115.717 389.226C115.717 389.226 113.464 394.95 113.766 399.429C113.971 402.455 115.668 405.677 116.977 407.925C115.658 408.786 114.188 409.921 112.506 410.892C111.624 411.401 110.554 411.911 109.579 412.437C107.693 410.632 104.163 407.227 102.994 405.242C101.473 402.661 100.311 398.006 100.311 398.006C100.311 398.006 98.8605 406.496 99.2537 410.974C99.4863 413.621 100.572 415.46 101.571 416.746C98.1176 418.527 95.2532 420.005 94.5789 420.771C93.2209 422.311 93.1716 422.213 94.8635 423.697C96.5554 425.182 115.254 418.392 122.709 415.242C131.624 411.475 135.622 409.867 144.01 404.307C152.398 398.747 173.969 384.632 173.969 384.632C173.97 384.632 170.084 380.362 167.953 373.901C165.823 367.438 167.14 365.771 167.14 365.77ZM174.539 388.372C174.538 388.372 161.843 396.472 149.091 404.795C136.399 413.078 125.131 417.256 116.327 420.649C107.228 424.155 97.2618 426.746 97.2618 426.746C97.262 426.746 92.7845 429.122 95.4326 435.649C98.0804 442.175 101.944 443.763 108.725 445.242C115.507 446.722 118.538 444.934 130.311 442.925C142.083 440.917 165.594 438.786 175.433 436.787C185.272 434.788 204.8 428.327 211.652 425.445C218.505 422.563 218.278 420.527 218.278 420.527L195.067 406.38L174.539 388.372Z" fill="#185555" fill-rule="nonzero" opacity="1" stroke="none"/>
<g opacity="1">
<path d="M96.6386 57.0658C107.961 57.0658 116.432 59.5217 122.051 64.4336C127.671 69.3455 130.481 76.3387 130.481 85.4132C130.481 89.4925 129.898 93.3846 128.732 97.0893C127.567 100.794 125.673 104.124 123.05 107.08C120.428 110.035 116.952 112.366 112.623 114.073C108.294 115.779 102.966 116.633 96.6386 116.633L89.8952 116.633L89.8952 146.229L65.7936 146.229L65.7936 57.0658L96.6386 57.0658ZM96.1391 76.5468L89.8952 76.5468L89.8952 97.0269L94.6405 97.0269C96.7219 97.0269 98.6575 96.673 100.447 95.9654C102.237 95.2578 103.673 94.0922 104.756 92.4688C105.838 90.8454 106.379 88.7016 106.379 86.0376C106.379 83.207 105.547 80.9176 103.882 79.1693C102.217 77.421 99.6357 76.5468 96.1391 76.5468Z" fill="#185555" fill-rule="nonzero" opacity="1" stroke="none"/>
<path d="M228.136 101.522C228.136 108.432 227.303 114.697 225.638 120.317C223.973 125.936 221.392 130.786 217.896 134.865C214.399 138.944 209.924 142.066 204.471 144.231C199.018 146.395 192.462 147.478 184.803 147.478C177.31 147.478 170.837 146.395 165.384 144.231C159.931 142.066 155.436 138.944 151.897 134.865C148.359 130.786 145.737 125.936 144.03 120.317C142.323 114.697 141.47 108.391 141.47 101.398C141.47 92.1566 143.01 84.102 146.09 77.2336C149.171 70.3653 153.916 65.058 160.327 61.3116C166.737 57.5653 174.937 55.6921 184.928 55.6921C195.084 55.6921 203.347 57.5861 209.716 61.3741C216.085 65.1621 220.747 70.4902 223.702 77.3585C226.658 84.2268 228.136 92.2815 228.136 101.522ZM166.82 101.522C166.82 106.851 167.424 111.45 168.631 115.322C169.838 119.193 171.774 122.169 174.438 124.25C177.102 126.332 180.557 127.372 184.803 127.372C189.215 127.372 192.733 126.332 195.355 124.25C197.977 122.169 199.871 119.193 201.037 115.322C202.203 111.45 202.785 106.851 202.785 101.522C202.785 93.447 201.453 87.0782 198.789 82.4161C196.125 77.754 191.505 75.4229 184.928 75.4229C180.599 75.4229 177.102 76.4844 174.438 78.6073C171.774 80.7302 169.838 83.7273 168.631 87.5985C167.424 91.4698 166.82 96.1111 166.82 101.522Z" fill="#185555" fill-rule="nonzero" opacity="1" stroke="none"/>
<path d="M283.956 75.5478C281.126 75.5478 278.586 76.1514 276.339 77.3585C274.091 78.5657 272.176 80.314 270.594 82.6034C269.012 84.8929 267.805 87.661 266.973 90.9078C266.14 94.1547 265.724 97.8594 265.724 102.022C265.724 107.6 266.432 112.304 267.847 116.133C269.262 119.963 271.427 122.856 274.341 124.812C277.254 126.769 280.918 127.747 285.33 127.747C289.243 127.747 293.052 127.206 296.756 126.124C300.461 125.041 304.187 123.709 307.933 122.127L307.933 142.483C304.02 144.231 300.003 145.501 295.882 146.291C291.761 147.082 287.37 147.478 282.707 147.478C273.05 147.478 265.141 145.563 258.981 141.733C252.82 137.904 248.283 132.555 245.369 125.686C242.455 118.818 240.998 110.888 240.998 101.897C240.998 95.1537 241.935 88.9722 243.808 83.3527C245.681 77.7332 248.449 72.8629 252.112 68.7419C255.775 64.6209 260.292 61.4365 265.662 59.1887C271.031 56.9409 277.213 55.817 284.206 55.817C288.535 55.817 293.072 56.3165 297.818 57.3155C302.563 58.3146 307.225 59.8963 311.804 62.0609L304.436 81.0424C301.189 79.4606 297.901 78.1494 294.571 77.1088C291.241 76.0681 287.703 75.5478 283.956 75.5478Z" fill="#185555" fill-rule="nonzero" opacity="1" stroke="none"/>
</g>
</g>
</svg>
